<?xml version="1.0" encoding="UTF-8" standalone="no"?><!DOCTYPE svg PUBLIC "-//W3C//DTD SVG 1.1//EN" "http://www.w3.org/Graphics/SVG/1.1/DTD/svg11.dtd"><svg width="100%" height="100%" viewBox="0 0 500 500" version="1.1" xmlns="http://www.w3.org/2000/svg" xmlns:xlink="http://www.w3.org/1999/xlink" xml:space="preserve" xmlns:serif="http://www.serif.com/" style="fill-rule:evenodd;clip-rule:evenodd;stroke-linecap:round;stroke-linejoin:round;"><path d="M92.326,440.404c-0.13,0.008 -0.261,0.016 -0.393,0.024c-27.713,1.753 -48.198,13.821 -48.198,13.821c-2.968,1.757 -6.804,0.774 -8.562,-2.194c-1.757,-2.968 -0.774,-6.805 2.194,-8.562c-0,-0 19.667,-11.697 47.225,-14.946l-14.88,-20.638c-1.255,-1.741 -1.529,-4.004 -0.726,-5.994c0.803,-1.991 2.572,-3.43 4.684,-3.811l30.94,-5.594c2,-0.362 4.05,0.271 5.498,1.697c1.447,1.425 2.112,3.465 1.781,5.47l-4.603,27.914c15.161,0.19 23.837,1.203 44.837,-7.865c10.332,-4.462 19.334,-9.007 27.462,-14.081l-28.771,-21.514c-1.719,-1.286 -2.658,-3.363 -2.487,-5.503c0.17,-2.139 1.427,-4.041 3.328,-5.038l31.592,-16.563c1.799,-0.944 3.945,-0.954 5.753,-0.027c1.808,0.927 3.052,2.675 3.337,4.686l4.432,31.305c9.624,-8.357 18.268,-18.325 27.083,-31.033c-20.736,-78.114 -46.965,-158.471 -78.28,-240.909c-1.108,-2.916 0.105,-6.203 2.842,-7.702c68.9,-37.712 141.158,-69.585 216.755,-95.649c2.837,-0.979 5.969,0.198 7.46,2.802c40.221,70.219 69.978,143.753 92.623,219.54c0.916,3.066 -0.632,6.329 -3.586,7.559c-78.96,32.877 -154.351,73.142 -226.542,120.031c-10.982,16.057 -21.65,28.115 -33.933,38.05l30.983,20.052c1.783,1.154 2.857,3.133 2.855,5.256c-0.003,2.123 -1.083,4.099 -2.869,5.247l-32.26,20.755c-1.838,1.183 -4.161,1.319 -6.125,0.36c-1.964,-0.959 -3.284,-2.875 -3.481,-5.052l-3.306,-36.489c-8.836,5.56 -18.634,10.523 -29.909,15.392c-22.606,9.762 -31.821,8.855 -48.219,8.78l19.472,23.48c1.356,1.634 1.789,3.844 1.15,5.869c-0.638,2.025 -2.26,3.587 -4.307,4.148l-32.609,8.943c-2.108,0.578 -4.365,0.013 -5.952,-1.49c-1.587,-1.503 -2.273,-3.726 -1.809,-5.862l7.521,-34.665Z" style="fill:none;stroke:#fff;stroke-width:25px;"/><g><path d="M153.97,119.874l76.062,237.702l135.089,-330.548c-79.634,23.116 -151.588,53.741 -211.151,92.846Z" style="fill:#e16215;stroke:#000;stroke-width:4.17px;"/><path d="M233.691,355.643l225.758,-114.331c-20.49,-78.231 -54.561,-148.29 -94.328,-214.284l-131.43,328.615Z" style="fill:#38c4e9;stroke:#000;stroke-width:4.17px;"/><path d="M186.149,362.562l-31.592,16.563l37.954,28.382l4.008,44.227l32.26,-20.755l-36.268,-23.472l-6.362,-44.945Z" style="fill:#081915;stroke:#081915;stroke-width:12.5px;"/><path d="M105.722,398.66l-30.94,5.594l24.431,33.885l-8.3,38.255l32.609,-8.943l-24.309,-29.312l6.509,-39.479Z" style="fill:#081915;stroke:#081915;stroke-width:12.5px;"/><path d="M362.866,32.547l-48.458,118.57l-80.453,203.88" style="fill:none;stroke:#081915;stroke-width:12.5px;"/><path d="M151.415,118.83c68.594,-37.545 140.53,-69.275 215.791,-95.224c39.979,69.797 69.548,142.892 92.057,218.223c-79.709,33.19 -155.799,73.872 -228.642,121.273c-20.903,-79.176 -47.444,-160.657 -79.206,-244.272Z" style="fill:none;stroke:#081915;stroke-width:12.5px;"/><path d="M157.554,121.339c-0,-0 78.436,-1.615 157.567,30.069c70.642,28.285 133.896,83.921 133.896,83.921" style="fill:none;stroke:#081915;stroke-width:12.5px;"/><path d="M230.64,363.11c-21.556,31.81 -41.712,47.53 -76.039,62.353c-28.329,12.234 -34.953,6.949 -63.062,8.728c-29.327,1.855 -50.988,14.68 -50.988,14.68" style="fill:none;stroke:#081915;stroke-width:12.5px;"/></g></svg>