<?xml version="1.0" encoding="UTF-8" standalone="no"?><!DOCTYPE svg PUBLIC "-//W3C//DTD SVG 1.1//EN" "http://www.w3.org/Graphics/SVG/1.1/DTD/svg11.dtd"><svg width="100%" height="100%" viewBox="0 0 500 500" version="1.1" xmlns="http://www.w3.org/2000/svg" xmlns:xlink="http://www.w3.org/1999/xlink" xml:space="preserve" xmlns:serif="http://www.serif.com/" style="fill-rule:evenodd;clip-rule:evenodd;stroke-linecap:round;stroke-linejoin:round;"><g><path d="M173.492,126.908l63.768,199.279l113.253,-277.117c-66.762,19.38 -127.085,45.054 -177.021,77.838Z" style="fill:#e16215;stroke:#000;stroke-width:4.17px;"/><path d="M240.327,324.567l189.266,-95.851c-17.178,-65.585 -45.742,-124.319 -79.08,-179.646l-110.186,275.497Z" style="fill:#38c4e9;stroke:#000;stroke-width:4.17px;"/><path d="M200.47,330.367l-26.485,13.886l31.819,23.794l3.359,37.078l27.046,-17.4l-30.405,-19.678l-5.334,-37.68Z" style="fill:#081915;stroke:#081915;stroke-width:12.5px;"/><path d="M133.044,360.63l-25.94,4.69l20.483,28.408l-6.959,32.071l27.338,-7.498l-20.379,-24.573l5.457,-33.098Z" style="fill:#081915;stroke:#081915;stroke-width:12.5px;"/><path d="M348.622,53.697l-40.625,99.404l-67.448,170.924" style="fill:none;stroke:#081915;stroke-width:12.5px;"/><path d="M171.351,126.033c57.506,-31.476 117.814,-58.078 180.909,-79.832c33.517,58.515 58.307,119.794 77.177,182.949c-66.825,27.825 -130.615,61.931 -191.684,101.67c-17.524,-66.378 -39.774,-134.688 -66.402,-204.787Z" style="fill:none;stroke:#081915;stroke-width:12.5px;"/><path d="M176.497,128.136c-0,-0 65.758,-1.354 132.098,25.209c59.223,23.713 112.252,70.356 112.252,70.356" style="fill:none;stroke:#081915;stroke-width:12.5px;"/><path d="M237.769,330.827c-18.072,26.667 -34.969,39.847 -63.747,52.274c-23.75,10.256 -29.303,5.826 -52.869,7.316c-24.586,1.556 -42.746,12.308 -42.746,12.308" style="fill:none;stroke:#081915;stroke-width:12.5px;"/></g></svg>